<svg xmlns="http://www.w3.org/2000/svg" viewBox="0 0 32 32">
  <rect x="1.5" y="4" width="29" height="24" rx="2" fill="#ece9d8" stroke="#0d47b4" stroke-width="1.4"/>
  <path d="M1.5 6 a2 2 0 0 1 2-2 h25 a2 2 0 0 1 2 2 v4 h-29 z" fill="#1c5fd6"/>
  <path d="M1.5 6 a2 2 0 0 1 2-2 h25 a2 2 0 0 1 2 2 v4 h-29 z" fill="url(#g)"/>
  <defs>
    <linearGradient id="g" x1="0" y1="0" x2="0" y2="1">
      <stop offset="0" stop-color="#5b9df4"/>
      <stop offset="1" stop-color="#0d47b4"/>
    </linearGradient>
  </defs>
  <circle cx="6.5" cy="6" r="1.3" fill="#fff"/>
  <circle cx="10.5" cy="6" r="1.3" fill="#fff"/>
  <rect x="5" y="14" width="22" height="2.4" rx="1.2" fill="#c9c5b4"/>
  <rect x="5" y="19" width="15" height="2.4" rx="1.2" fill="#c9c5b4"/>
</svg>
